<?xml version="1.0"?>
<svg viewBox="0 0 2420 2100" xmlns="http://www.w3.org/2000/svg" xmlns:xlink="http://www.w3.org/1999/xlink">
<linearGradient id="d" gradientUnits="userSpaceOnUse" x1="791.35" x2="2067.4" y1="1250.5" y2="1250.5">
<stop offset="0" stop-color="#4d4d4d"/>
<stop offset=".3804" stop-color="#b3b3b3"/>
<stop offset="1"/>
</linearGradient>
<linearGradient id="e" gradientUnits="userSpaceOnUse" x1="1421.4" x2="1421.4" y1="943.5" y2="1932.5">
<stop offset="0" stop-color="#333"/>
<stop offset="1" stop-color="#666"/>
</linearGradient>
<linearGradient id="f" gradientUnits="userSpaceOnUse" x1="944.35" x2="586.35" y1="293.5" y2="297.5">
<stop offset="0" stop-color="#666"/>
<stop offset="1" stop-color="#999"/>
</linearGradient>
<linearGradient id="g" gradientUnits="userSpaceOnUse" x1="5.94" x2="3.04" y1="4.42" y2="4.53">
<stop offset="0" stop-color="#808080"/>
<stop offset="1" stop-color="#b3b3b3"/>
</linearGradient>
<linearGradient id="h" gradientUnits="userSpaceOnUse" x1="731.35" x2="75.35" y1="1176.5" y2="1163.5">
<stop offset="0" stop-color="#1a1a1a"/>
<stop offset=".6392" stop-color="#4b4b4b"/>
<stop offset="1" stop-color="#999"/>
</linearGradient>
<linearGradient id="i" gradientUnits="userSpaceOnUse" x1="2204.4" x2="2088.4" y1="1250.5" y2="1157.5">
<stop offset="0" stop-color="#1a1a1a"/>
<stop offset="1" stop-color="#666"/>
</linearGradient>
<linearGradient id="j" gradientUnits="userSpaceOnUse" x1="5.39" x2="3.53" y1="4.52" y2="4.4">
<stop offset="0" stop-color="#b3b3b3"/>
<stop offset="1" stop-color="#fefefe"/>
</linearGradient>
<linearGradient id="l" gradientUnits="userSpaceOnUse" x1="2209.4" x2="2084.4" y1="1239.5" y2="1166.5">
<stop offset="0" stop-color="#808080"/>
<stop offset="1" stop-color="#666"/>
</linearGradient>
<linearGradient id="m" gradientUnits="userSpaceOnUse" x1="1932.4" x2="488.35" y1="1117.5" y2="1117.5">
<stop offset="0" stop-color="#1a1a1a"/>
<stop offset="1" stop-color="#333"/>
</linearGradient>
<linearGradient id="o" gradientUnits="userSpaceOnUse" x1="1494.4" x2="1376.4" y1="602.5" y2="1128.5">
<stop offset="0" stop-color="#333"/>
<stop offset="1" stop-color="#808080"/>
</linearGradient>
<linearGradient id="p" gradientUnits="userSpaceOnUse" x1="1135.4" x2="1723.4" y1="1023.5" y2="1023.5">
<stop offset="0" stop-color="#69f"/>
<stop offset=".2196" stop-color="#5f8eff"/>
<stop offset=".4196" stop-color="#fff"/>
<stop offset=".5686" stop-color="#3d5bff"/>
<stop offset="1" stop-color="#369"/>
</linearGradient>
<linearGradient id="q" gradientUnits="userSpaceOnUse" x1="8.55" x2="6.59" y1="3.69" y2="3.71">
<stop offset="0" stop-color="#1a1a1a"/>
<stop offset="1" stop-color="#808080"/>
</linearGradient>
<linearGradient id="t" gradientUnits="userSpaceOnUse" x1="1419.4" x2="1419.4" y1="920.5" y2="566.5">
<stop offset="0" stop-color="#1a1a1a"/>
<stop offset="1" stop-color="#999"/>
</linearGradient>
<radialGradient id="u" cx="1343.4" cy="1373.5" gradientUnits="userSpaceOnUse" r="887">
<stop offset="0" stop-color="#146431"/>
<stop offset="1" stop-color="#143131"/>
</radialGradient>
<radialGradient id="v" cx="1421.4" cy="1399.5" gradientUnits="userSpaceOnUse" r="1046">
<stop offset="0" stop-color="#b3b3b3"/>
<stop offset="1"/>
</radialGradient>
<radialGradient id="w" cx="376.35" cy="614.5" gradientUnits="userSpaceOnUse" r="2057">
<stop offset="0" stop-color="#808080"/>
<stop offset="1"/>
</radialGradient>
<linearGradient id="a" x1="545.35" x2="359.35" xlink:href="#j" y1="459.5" y2="447.5"/>
<linearGradient id="b" x1="600.35" x2="310.35" xlink:href="#g" y1="449.5" y2="460.5"/>
<linearGradient id="c" x1="861.35" x2="665.35" xlink:href="#q" y1="376.5" y2="378.5"/>
<linearGradient id="k" x1="306.35" x2="198.35" xlink:href="#j" y1="476.5" y2="470.5"/>
<linearGradient id="n" x1="1421.4" x2="1429.4" xlink:href="#g" y1="276.5" y2="175.5"/>
<linearGradient id="r" x1="354.35" x2="238.35" xlink:href="#q" y1="534.5" y2="535.5"/>
<linearGradient id="s" x1="558.35" x2="425.35" xlink:href="#q" y1="558.5" y2="561.5"/>
<path d="m264.05 375.65c67.8-4.8 135.7-4.2 203.5 0 34.8 2.2 63.4 25.5 63.4 60.4v54.3h-330.3v-54.3c0-35 28.6-58 63.4-60.4z" fill="#333" stroke="#000" stroke-width="3"/>
<ellipse cx="370.55" cy="397.65" fill="#b3b3b3" rx="100.9" ry="11.5" stroke="#000" stroke-width="3"/>
<path d="m6.35 689.35s40.6-238.3 251.8-249c211.2-11 1391.8-46 1668-11 276.2 35.3 322.2 43.4 322.2 43.4 21.7-2.7 165.2 94.7 165.2 203 0 98-8 1010-8 1010s-16.3 108.4-89.4 111c-73 2.8-1697.8 11-1697.8 11s-230 32.4-284.3 32.4c-54 0-235.6-40.7-249-48.8-13.6-8.2-70.5-40.7-67.8-89.4 2.6-48.6-10.9-1012.6-10.9-1012.6z" fill="url(#m)"/>
<path d="m6.35 689.35s39.3-117 141.5-188.4l597.8-2.4 15.7 254c39-4.3 38.3 16 31.4 39l-59.7 181.4c-70.4 10-116.7 70-140.7 176.3l-1 140.3 4 518.8c-51 7.2-215.3 32-261.4 32-54 0-235.5-40.8-249-49-13.6-8-70.5-40.5-67.8-89.2 2.7-48.8-10.8-1012.8-10.8-1012.8z" fill="url(#h)"/>
<rect fill="#5e1e1e" height="216.6" rx="27.6" width="83.9" x="296.05" y="1117.2"/>
<path d="m6.35 689.35s40.6-238.3 251.8-249c110.5-5.7 486.4-18 859.2-23.5 6 28 10 47.8 10 47.8l-246.4 265.4s-622.8-24.4-771.7-27c-48-1-80.5-6.26-102.9-12.97z" fill="url(#w)"/>
<path d="m1016.4 464.65c-250.4 2.7-814.5-85.3-953 132.7-29 45.3-31.5 68.4-38 97.4-7-1.5-13.4-3-19-4.8v-.6s40.6-238.3 251.8-249c102-5.3 429-16.2 771.6-22m799.6 3c38.9 2.2 71.7 5 97 8 276 35.3 322 43.4 322 43.4 21.8-2.7 165.3 94.7 165.3 203v6.3l-15 4.5s12.3-19-23-81.3-92-95-130-108.4c-37.8-13.6-406-27-406-27" fill="#b3b3b3"/>
<path d="m6.95 735.45c16.5 3 51.6 7.4 119.2 7.4 104 0 638.6 5.3 644.3 5.4 1 0 47.3-2.4 24 47-21.6 45.8-61.47 176.25-62.27 177.3-3.92.23-132.83 31.7-138.13 203.1h0c-5.2 165.4 4.4 527.4 5.3 560.8l301-.2 964.2-2.3c1.4 0 457.9-19 490.2-19 20.2 0 38.3-10.7 48.7-18.5l-2.1 7.5c-11.2 7.7-28 16.2-46.7 16.2-32.6 0-488.8 18.8-490.1 19l-964.2 2.1-303 .4-279 18.89c-.76-.07-189.87-21.9-219.87-30.1-8.5-2.4-21.8-6-36.3-10.6-14.4-4.6-30.42-9.96-45.12-16.36l.23-5.22c14.6 6.3 31.66 12.48 46.26 16.98 15 4.8 27.8 8.4 36.2 10.7 29 8 211.7 29 218.7 29.7l276.4-18.8c-1-33-10.6-395.2-5.4-561 5.2-165 125.16-203.7 139.26-207.7 4.3-13.8 40.84-131.6 61.34-175 19.8-42.2-18.96-39.57-18.96-39.57s-538.24-5.63-644.94-5.63c-66 0-101.7-4.2-119-7.5m1925.2-19.7c37.3 0 431.4-18 448.8-19l32.39-19.24.01 6.34-30.69 18.09-.81.23c-.7.72-411.9 18.88-449.7 18.88l-1056-5.2h-200.6c-9.6 0-81.4-1.7-166.4-3.8-123-3-273.8-7-304.6-7-44.7 0-166.4-11.8-198.4-15.3v-5.2c31 3.2 153.6 15.5 198.4 15.5 30 0 181.5 3.8 305 7 84.5 2 156 3.8 166 3.8h200.6z" fill="#666"/>
<path d="m2081.8 964.95c49 17 109 33 151 54 14.4 7.2 26.7 16 35.8 27.2 35.7 44.2 23 209.8-4 231.5-27 21.6-246.4 120.5-246.4 120.5l-43.5-346.6 107-86.7z" stroke="#666"/>
<path d="m1251.4 75.05l1.2-62.3 2.8-4.7 39.2-.7 3.8 3.7 26.7 49m285 15l-1.3-62.3-2.8-4.7-39.2-.7-3.8 3.7-26.7 49" fill="#e6e6e6"/>
<path d="m1328.2 8.35h206.4c4 0 6.3 3.3 7 7.2l10.4 48.3h-241.2l10.2-48.3c1-4 3.3-7.2 7.2-7.2z" fill="#808080"/>
<rect fill="#333" height="81.4" rx="16.4" width="398" x="1229.6" y="52.65"/>
<path d="m765.95 1351.8s-48-92.8-42-241c5.3-131 280.2-769 280.2-769l54-149s31.2-82.5 142.2-82.5 503.6 5.3 503.6 5.3 71.7 1.3 109.6 117.7c38 116.4 267.2 730.3 276.2 755.5 6.8 19 31 185.5-48.8 205.8-80 20.3-761 181.4-761 181.4l-514.4-24.4z" fill="url(#t)"/>
<path d="m971.65 556.05s80-109.7 120.5-174.7c40.7-65 146.3-224.7 146.3-224.7l368.3-5.5s81.4 122.4 113.7 168l166.6 234.1c2.6 39-960 9.7-915.3 2.7z" fill="#333"/>
<path d="m1144.4 300.15c44.3-68.2 94-143.5 94-143.5l368.4-5.5s63.3 95.3 100.4 149z" fill="url(#n)"/>
<path d="m1463.2 443.65c130.8 0 255.2 11 367.7 30.8 18.7 26.4 111.3 159.6 198.2 437.8 13.6 43.3 90.7 184 21.7 258.5s-241 55.6-241 55.6l-1019.5 60.8s-39.3-76-13.6-197.7c41.5-196.6 124-431.6 242.45-599.8 131.55-29.3 283.05-46 444.05-46z" fill="url(#o)"/>
<circle cx="2146.8" cy="1203.2" fill="url(#l)" r="82.6"/>
<circle cx="2146.2" cy="1203.8" fill="url(#i)" r="69.7"/>
<path d="m2184.8 1318.2s61-32.6 69-39.3c8.2-6.8 17.6-43.4 13.6-78.6-4-35-2.7-78.4-27-98.7-24.5-20.3-123.3-55.6-123.3-55.6l-44.7-13.6-9.5-37.8s180 77 192.2 96c23 36 28.5 169.2 6.3 187-22.2 17.7-38.5 24.2-76.8 43" fill="#666"/>
<ellipse cx="1429.4" cy="1249.8" fill="url(#d)" rx="638.4" ry="627.8"/>
<path d="m2067.4 1232.2c.3 6 .4 11.8.4 17.7 0 20-1 39.8-3 59.3-15-145.8-82.5-276.8-183.6-375-115.6-112.2-275.3-181.6-451.8-181.6-176.4 0-336.2 69.5-451.8 181.7-101 98-168.4 229-183.7 375-1.8-19.7-2.8-39.5-2.8-59.5 0-6 0-12 .3-17.7 27.7-119 89.8-225.5 175.7-309 118.4-115 282-186 462.5-186s344 71 462.5 186c86 83.3 148 189.8 175.7 309z" fill="url(#p)"/>
<ellipse cx="1429.4" cy="1451.6" fill="#4d4d4d" rx="651.9" ry="641.1"/>
<ellipse cx="1429.4" cy="1448.8" fill="#333" rx="586.9" ry="574.7"/>
<path d="m830.35 1117.2v-26.2c2.5-7 5.2-13.7 8-20.5v29.5c-2.8 5.7-5.5 11.5-8 17.3zm28.3-55.3v-35.2c3.5-7 7-13.6 11-20.3v37.4c-3.8 6-7.5 12-11 18zm28.4-44.7v-40.3c4.4-7 9-13.8 13.6-20.6v42c-4.6 6.2-9 12.5-13.5 18.8zm31.3-41.1v-44c4.3-6 8.8-11.5 13.4-17.2v45.2l-13.5 16zm39-43.3v-47.2c5-5.5 10.3-11 15.5-16.2v48.2l-6 5.7c-3.2 3-6.4 6-9.5 9.3zm43.7-40.4v-49.7c5.3-4.7 10.6-9.2 16-13.7v50.4c-5.4 4.2-10.7 8.5-16 13zm45.8-35.3v-51.7l16.3-11.5v52zm52-32.9v-53.2c5.5-3.3 11-6.4 16.7-9.6v53.6c-5.6 3-11.2 6-16.7 9.2zm46.8-24.3v-54.2l17-8v54.5c-5.7 2.5-11.4 5-17 7.7zm48.9-20.5v-55c5.8-2.4 11.6-4.5 17.4-6.6v55.3c-5.8 2-11.6 4-17.4 6.2zm0 17.2v-.8l17.4-6.4v.5zm46.8-32.7v-55.8c6-1.8 11.8-3.5 17.8-5v56c-6 1.4-12 3-17.8 4.8zm49-12.3v-56.2l18-3.7v56.4c-6 1-12 2.3-18 3.5zm47.8-8.2v-56.6l18.6-2.3v56.7c-6.2.7-12.4 1.4-18.6 2.3zm49.9-5v-56.6l19-1v56.8c-6.4.3-12.7.5-19 1zm611.9 288.2l8.2 16.6v33.2l-8.2-14.6zm-31.1-54.2l11 17.6v39l-11-15.8zm-31.2-44c4.6 6 9.1 12 13.6 18.3v43c-4.6-5.8-9-11.4-13.7-17v-44.3zm-31.1-37c4.6 5 9 10 13.6 15.4v45.8c-4.5-5-9-9.8-13.6-14.5zm-41.2-41.6c5.4 5 10.6 9.8 15.7 14.8v48.4c-5-4.8-10.3-9.4-15.6-14v-49.2zm-44-37.1c5.4 4 10.7 8.3 16 12.6v50.5l-16-12v-51.2zm-46.2-32.3c5.5 3.5 11 7 16.3 10.8v52.2c-5.3-3.5-10.7-7-16.2-10.2v-52.8zm-52.3-29.8l16.7 8.8v53.7c-5.5-3-11-5.7-16.7-8.5zm-47.2-21.7c5.7 2.3 11.4 4.7 17 7.3v54.6l-17-7v-55zm-49.3-18c6 2 11.7 3.8 17.4 6v55.3c-5.7-2-11.6-3.8-17.4-5.6v-55.6zm-47.2-13c6 1.4 12 3 17.8 4.5v56c-6-1.6-11.8-3-17.8-4.4v-56zm-49.3-9.7l18.2 3v56.5l-18.2-3zm-48.2-5.8c6.2.6 12.4 1.2 18.6 2v56.5c-6.3-.6-12.5-1.2-18.7-1.6v-57zm-50.3-2c6.3 0 12.7.2 19 .4v56.8c-6.3-.2-12.7-.3-19-.3v-57z" fill="#b3b3b3"/>
<path d="m2067.2 1264.8c0 3-.2 6-.4 9-17.3-328.3-296-589.2-637.4-589.2s-620 261-637.4 589.2l-.4-9c13.5-331.7 293.8-596.6 637.8-596.6s624.3 265 637.8 596.6z" fill="#1a1a1a"/>
<ellipse cx="1421.2" cy="1437.6" fill="url(#e)" rx="498.2" ry="494.4"/>
<ellipse cx="1421.2" cy="1434.6" rx="422.5" ry="419.3"/>
<ellipse cx="1421.2" cy="1399.2" fill="url(#v)" rx="355.4" ry="352.7"/>
<ellipse cx="1421.2" cy="1404.2" fill="#1a1a1a" rx="273.9" ry="268.8"/>
<circle cx="1417.8" cy="1405.1" fill="url(#u)" r="266.7"/>
<ellipse cx="1426" cy="1368.4" fill="none" rx="125.9" ry="126" stroke="#3e6b35" stroke-width="10"/>
<ellipse cx="1350.2" cy="1309" fill="#9ea89c" rx="21.7" ry="20.3"/>
<circle cx="1428.6" cy="1376.8" fill="#234a1b" r="78.5"/>
<ellipse cx="1313.6" cy="1360.5" fill="#678960" rx="21.7" ry="20.3"/>
<path d="m421.65 474.35l-244.7 15.3s-5.8 45 1 61.3 31.8 44 55.5 44c23.8 0 154.4-8 154.4-8l34-112.5z" fill="url(#r)"/>
<path d="m368.85 515.75s-93.4 4.8-130 .7c-36.5-4-59.5-10-61.2-27s28-31 62.6-35.2 163.7-14.2 163.7-14.2l-8.2 75-27 .8z" fill="#4d4d4d"/>
<path d="m610.55 451.35s23 57 6.7 100.3-63 117-134.8 113.7c-71.7-3.4-115-53-128-78.5l6-73.8c.5-4.8-10.8-12.2-9.4-22.3 1.3-10.2 2-22.4 2-22.4l257.3-17z" fill="url(#s)"/>
<path d="m581.05 292.75s-12.8-1.4-13.5 10.8c-.4 6.5-2.7 31-4.8 52-.2 2.6-3.2 5-3.4 7.5-1.5 14.7-4.7 28.3-4.7 28.3l-4 34.5s79.2 37.2 207 33c128-4 208.6-28.3 213.4-36.5s1.4-54.2 1.4-54.2l-8-11.4-3.3-55c-.3-5.2-5.5-10-10.8-10l-369 .6z" fill="url(#c)"/>
<path d="m481.75 419.55c71-6 128.8 9.6 128.8 35s-57.7 50.5-128.8 56.5c-71 6-128.8-9.6-128.8-34.8 0-25.4 57.7-50.8 128.8-56.8z" fill="url(#b)"/>
<ellipse cx="485.24" cy="503.83" rx="104.5" ry="38.2" stroke-width="28.2" transform="matrix(.9961 -.0884 0 1 0 0)"/>
<path d="m482.35 423.35c51.5-4.5 93.3 7.3 93.3 26.4 0 19.2-41.8 38.4-93.4 43-51.7 4.5-93.5-7.3-93.5-26.5s41.8-38.4 93.4-43z" fill="url(#a)"/>
<path d="m215.15 481.55l.4 17s1 11.8 28.4 10c27.4-1.6 69-6.3 83.6-16.5l-3-23-40.3-9s-68.5 22-69.2 21.5z" fill="#333"/>
<path d="m269.55 457.05c30-2.5 54.3 4 54.3 14.2 0 10-24.3 20.5-54.3 23-30 2.3-54.2-4-54.2-14.3s24.3-20.6 54.2-23z" fill="url(#k)"/>
<ellipse cx="765.25" cy="295.05" fill="url(#f)" rx="190.2" ry="28.1"/>
<path d="m973.75 392.55c0 10-24.4 18.3-64 23.7-37.4 5-89 8-146 8s-109-3-146.3-8c-39.4-5.5-63.8-13.8-63.8-23.8h8.3c0 5.6 21.7 11.3 56.7 16 37 5.2 88.3 8.3 145 8.3s108-3 145-8.2c35-4.8 56.7-10.5 56.7-16h8.2z"/>
<path d="m765.15 271.15c44.6 0 85 2 114.2 5.2 30.6 3.4 49.5 8.6 49.5 15s-19 11.7-49.5 15c-29.2 3.2-69.6 5.2-114.2 5.2-44.5 0-85-2-114.2-5.2-30.5-3.3-49.4-8.6-49.4-15s19-11.6 49.5-15c29.2-3 69.6-5 114.2-5zm113.7 10.3c-29-3-69.2-5-113.7-5-44.4 0-84.6 1.8-113.6 5-27.7 3-45 6.5-45 10s17.3 6.8 45 9.8c29 3.2 69.2 5 113.7 5 44.3 0 84.5-2 113.5-5 27.7-3.2 45-6.7 45-10s-17.3-7-45-10z" fill="#fff"/>
<g fill="#4d4d4d">
<rect height="65.1" rx="1.5" stroke-width="29.4" transform="matrix(.988 .1547 0 1 0 0)" width="21.3" x="590.31" y="225.02"/>
<rect height="65.1" rx="2.7" stroke-width="34.1" transform="matrix(.9966 .0823 0 1 0 0)" width="28.5" x="645.54" y="275.85"/>
<rect height="69.1" rx="7.7" width="34.5" x="737.45" y="331.95"/>
<rect height="65.1" rx="2.5" stroke-width="33.2" transform="matrix(.9991 -.042 0 1 0 0)" width="27.1" x="842.55" y="368.1"/>
<rect height="65.1" rx="1.2" ry="1.1" stroke-width="27.7" transform="matrix(.9736 -.2282 0 1 0 0)" width="18.8" x="947.35" y="538.09"/>
</g>
<rect fill="#039" height="119.1" rx="3.1" width="113.7" x="2177.4" y="1530"/>
<path d="m1167.4 1003l-7.6 4.7-17.8-28.5c-1.1 4.3-3.2 8.3-6.2 11.8l-4.3-6.9c1.6-1.9 3-4.4 4.1-7.7 1.2-3.3 1.5-6.3.8-9.3l6.1-3.8zm27-15.15l-4.5-8.2-16.7 9.2-3.8-6.8 3.3-35.6 6.5-3.6 14.3 25.8 5.1-2.8 3.8 6.9-5 2.8 4.5 8.2zm-8.2-15l-7.7-13.9-1.6 19.1zm20.4-5.6l-3.6-8.1 16-7.1 3.6 8.1zm39.6-4.1l-3.4-8.7-17.8 6.8-2.8-7.3 8.3-34.8 7-2.7 10.6 27.6 5.4-2.1 2.8 7.3-5.4 2.1 3.4 8.7zm-6-16.1l-5.7-14.8-4.3 18.7zm49.4-8.4l2.6 7.9-29.7 9.7c-.6-3.1-.6-6.2.2-9.4.7-3.2 2.8-7.8 6.1-13.7 2.7-4.8 4.2-8 4.7-9.5.6-2.1.6-4.1.1-5.8-.6-1.9-1.6-3.2-2.9-3.9-1.4-.7-2.9-.7-4.7-.2-1.8.6-3 1.6-3.7 3s-.7 3.4-.1 5.9l-8.7 1.9c-1-4.8-.5-8.7 1.5-11.6s5-5 9-6.3c4.4-1.4 8.2-1.4 11.4.2 3.3 1.6 5.5 4.1 6.6 7.6.7 2 .9 4 .8 6s-.7 4.3-1.6 6.8c-.6 1.6-1.8 4.1-3.7 7.5-1.9 3.3-3 5.5-3.5 6.5s-.8 2-1 2.9zm2.4-27.4l8-1.7 1 4.5c2.1-4.1 5.2-6.6 9.2-7.4 2.1-.4 4-.4 5.8.1 1.7.5 3.3 1.6 4.7 3.1 1.1-2.1 2.4-3.7 3.8-4.9 1.5-1.2 3.2-2 5.1-2.4 2.4-.5 4.6-.5 6.5.2 1.9.6 3.4 1.8 4.7 3.5.9 1.3 1.7 3.5 2.4 6.6l4.5 21.1-8.7 1.9-4-18.8c-.7-3.3-1.4-5.3-2.2-6.1-1.1-1.1-2.4-1.4-4.1-1.1-1.2.3-2.3.9-3.2 1.9s-1.5 2.2-1.6 3.8c-.2 1.5.1 3.9.7 7l3.4 15.8-8.7 1.9-3.8-18.1c-.7-3.2-1.3-5.2-1.8-6.1s-1.1-1.5-1.9-1.8-1.7-.4-2.8-.1c-1.3.3-2.5.9-3.4 1.9s-1.5 2.2-1.7 3.6c-.2 1.5.1 3.8.7 6.9l3.4 16-8.7 1.9zm60.2-11.9l8.2-1 .6 4.6c2.5-3.9 5.7-6.1 9.8-6.6 2.1-.3 4.1-.1 5.7.6 1.7.7 3.1 1.9 4.4 3.5 1.2-2 2.7-3.5 4.3-4.6s3.4-1.8 5.3-2c2.5-.3 4.6-.1 6.4.7s3.3 2.1 4.3 3.9c.8 1.4 1.4 3.6 1.8 6.8l2.6 21.4-8.8 1.1-2.3-19.1c-.4-3.3-1-5.4-1.7-6.3-1-1.2-2.3-1.6-4-1.4-1.2.2-2.4.7-3.4 1.6s-1.6 2.1-1.9 3.6-.3 3.9.1 7l2 16.1-8.8 1.1-2.3-18.3c-.4-3.3-.8-5.3-1.2-6.2s-1-1.5-1.7-1.9-1.6-.5-2.8-.4c-1.4.2-2.5.7-3.5 1.6s-1.7 2-2 3.5c-.3 1.4-.3 3.8.1 7l2 16.3-8.9 1.1zm154.8 33.2l-8.8-1.1 4.1-33.4c-3.6 2.6-7.7 4.4-12.2 5.3l1-8c2.4-.5 5.1-1.6 8.1-3.4s5.1-4 6.5-6.7l7.2.9zm33.2-6.2l8.7.8c-.2 2.2.2 4 1.1 5.4s2.2 2.3 3.9 2.6c1.8.4 3.5 0 5-1.1s2.5-2.8 3-5.1c.5-2.2.3-4.1-.7-5.6-.9-1.5-2.2-2.5-3.9-2.8-1.1-.2-2.5-.3-4.1-.2l2.5-6.9c2.4.6 4.3.4 5.7-.4 1.5-.8 2.4-2.1 2.8-3.9.3-1.5.1-2.9-.6-4s-1.8-1.8-3.3-2.1-2.9-.1-4.1.7c-1.3.8-2.2 2.2-2.9 4.1l-7.8-3.1c1.1-2.6 2.5-4.7 3.9-6.1 1.5-1.4 3.3-2.4 5.5-2.9s4.6-.5 7.1 0c4.3.9 7.4 3 9.4 6.3 1.7 2.7 2.2 5.4 1.6 8.3-.9 4-3.7 6.7-8.6 8.2 2.5 1.1 4.3 2.8 5.5 5.1 1.1 2.3 1.4 4.8.8 7.5-.9 4-3 7.1-6.5 9.3s-7.4 2.8-11.8 1.9c-4.1-.9-7.3-2.8-9.5-5.7-2.2-3-3.1-6.4-2.7-10.3zm34.4 21.2l2.3-8.6 8.6 2.3-2.3 8.6zm19.2-6.5l8.7 1.9c-.4 2-.2 3.7.7 5.2.8 1.5 2 2.5 3.6 3 1.8.6 3.5.3 5.2-.7s3-3 4-5.9c.9-2.7.9-4.9.2-6.7-.8-1.8-2.1-3-4.1-3.6-2.4-.8-5-.4-7.6 1.1l-6.6-3.2 11.8-21.6 22.4 7.3-2.6 7.9-16-5.2-3.8 7.1c2.2-.3 4.3-.2 6.3.5 3.8 1.2 6.5 3.6 8.2 7.2s1.9 7.6.5 11.9c-1.2 3.6-3.3 6.6-6.3 8.7-4.2 3-8.8 3.6-13.9 2-4.1-1.3-7.1-3.5-8.9-6.5-1.9-3-2.4-6.5-1.7-10.3zm36.2 13l3.6-8.1 16 7.1-3.6 8.1zm19.4 8.9l8.3 3.2c-.7 1.9-.7 3.7-.2 5.3.6 1.6 1.6 2.8 3 3.5 1.7.8 3.4.9 5.2.1s3.5-2.5 4.8-5.2c1.3-2.5 1.7-4.7 1.2-6.6s-1.7-3.2-3.5-4.2c-2.3-1.2-4.8-1.2-7.7-.1l-6-4.2 15.1-19.5 21 10.7-3.8 7.4-15-7.6-4.8 6.4c2.2 0 4.3.5 6.1 1.4 3.5 1.8 5.9 4.6 7 8.4s.7 7.8-1.4 11.9c-1.7 3.4-4.3 6-7.6 7.6-4.6 2.3-9.2 2.2-14-.2-3.8-2-6.4-4.6-7.8-7.8-1.4-3.3-1.4-6.8-.1-10.5zm86.2 22.4l-7.8-3.8c.8-1.6 1-3 .7-4.2s-1.1-2.2-2.3-2.9c-1.6-1-3.4-1.1-5.4-.4s-4.6 3.3-7.7 7.7c3.3-1 6.3-.7 9.1 1.1 3.2 2 5.1 4.9 5.9 8.7s-.1 7.6-2.4 11.4c-2.5 4-5.7 6.5-9.6 7.5s-7.7.3-11.4-2c-4-2.5-6.3-6.1-6.9-10.8-.6-4.7 1.3-10.6 5.7-17.6 4.5-7.2 9.1-11.6 13.8-13.1s9.1-1 13.4 1.7c3 1.9 4.9 4.3 5.9 7.2.9 2.9.7 6.1-.8 9.7zm-27.4 5.8c-1.5 2.5-2.2 4.7-1.9 6.7s1.2 3.5 2.6 4.4 2.9 1.1 4.5.5c1.6-.5 3.2-2 4.8-4.5 1.6-2.6 2.3-4.8 2-6.6s-1.1-3.2-2.6-4.1c-1.4-.9-3-1.1-4.8-.6-1.7.5-3.3 1.9-4.7 4.1zm-30.6-.2l4.5-7.7 7.7 4.5-4.5 7.7zm-157-59.8l1.5-8.8 8.8 1.5-1.5 8.8zm3.6-21.4l1.4-8.8 8.8 1.4-1.4 8.8zm719.2-289.9c0 3.3.6 5.7 1.6 7 1 1.4 2.5 2 4.2 2 2.3 0 4.3-1 6-3 2.3-3 4.4-8.4 6.2-16.6 1.5-6.6 2.2-11.8 2.2-15.6 0-3-.5-5.3-1.6-6.7-1-1.3-2.5-2-4.2-2-2 0-4 1-5.7 3-2.5 3-4.6 8.4-6.4 16-1.5 6.4-2.2 11.7-2.2 16zm-12-2.5c0-6.2 1.2-12.6 3.3-19 2.6-7.7 6-13.5 10-17.3s8.6-5.7 13.5-5.7c5 0 9 1.8 12.4 5.5 3.2 3.6 4.8 9 4.8 16 0 6.3-1 13-3.5 20-2.3 7-5.5 12.5-9.5 16.3s-8.5 5.7-13.5 5.7-9.2-1.8-12.4-5.5c-3.2-3.6-4.8-9-4.8-15.7zm-43.4-15.6l2.3-10.7c10.4-4.5 18.5-10 24.2-16h7.4l-13 62.5h-12.5l9-43c-2.5 1.7-5.5 3.2-8.8 4.5-3.3 1.4-6.3 2.3-9 3zm-35.6-7l-12-1.8c1-5.7 3.3-10 6.8-13.2s8-4.6 13.2-4.6c5.8 0 10.4 1.6 13.6 4.7 3.3 3 5 7 5 12 0 2.4-.5 4.8-1.5 7.3s-2.6 5-5 7.8c-1.6 2-4.3 4.7-8 8.2-4 3.5-6.4 6-7.6 7.2s-2.4 2.6-3.5 4h21.4l-2.3 11h-37.6c.4-3 1.3-5.8 2.7-8.6 1.5-2.7 3.2-5.3 5.3-7.6 2-2.4 6-6.2 11.4-11.5 4.2-4 6.8-6.7 8-8 2-2 3.3-4 4-5.6.8-1.6 1-3 1-4.3 0-2-.5-3.8-1.7-5-1.2-1.4-2.8-2-4.7-2s-3.6.6-5 2c-1.4 1.5-2.5 4.2-3.2 8zm-46 14.6h23.6l-2.4 11.6h-23.6zm-56.8 28.1l2-9.6 35.8-42h-29l2.3-10.3h44.8l-2 9.7-36 42.2h6.7c2.8 0 6.6 0 11.3-.2h14.7l-2 10.4h-48.2z" fill="#ccc"/>
<g fill="none">
<ellipse cx="1421.4" cy="1403.2" rx="306.9" ry="304.4" stroke="#1a1a1a" stroke-width="6.2"/>
<circle cx="1421.4" cy="1389.4" r="159" stroke="#375431" stroke-width="5.2"/>
</g>
<g fill="#a33939">
<rect height="27.2" rx="7" width="63.4" x="1398.8" y="605.75"/>
<rect height="18" rx="1" width="63.4" x="1398.8" y="614.95"/>
</g>
</svg>
