<?xml version="1.0" encoding="UTF-8" standalone="no"?>
<svg xmlns="http://www.w3.org/2000/svg" xmlns:xlink="http://www.w3.org/1999/xlink" width="128" height="128">
  <defs>
    <linearGradient id="l">
      <stop offset="0"/>
      <stop offset=".5" stop-color="#fff"/>
      <stop offset="1"/>
    </linearGradient>
    <linearGradient id="m">
      <stop offset="0" stop-color="#fff" stop-opacity="0"/>
      <stop offset=".5" stop-color="#fff" stop-opacity=".59375"/>
      <stop offset="1" stop-color="#fff" stop-opacity="0"/>
    </linearGradient>
    <linearGradient id="c">
      <stop offset="0"/>
      <stop offset="1" stop-opacity="0"/>
    </linearGradient>
    <linearGradient id="n">
      <stop offset="0" stop-opacity=".17708333"/>
      <stop offset="1" stop-opacity="0"/>
    </linearGradient>
    <linearGradient id="f">
      <stop offset="0" stop-color="#fff" stop-opacity=".39583334"/>
      <stop offset="1" stop-opacity=".59375"/>
    </linearGradient>
    <linearGradient id="a">
      <stop offset="0" stop-color="#3d3d52"/>
      <stop offset=".5"/>
      <stop offset="1" stop-color="#82878d"/>
    </linearGradient>
    <linearGradient id="i">
      <stop offset="0" stop-color="#fff"/>
      <stop offset=".52777779" stop-color="#fff"/>
      <stop offset=".63333333" stop-color="#7d7d7f"/>
      <stop offset=".63333333" stop-color="#bebebf" stop-opacity=".49803922"/>
      <stop offset="1" stop-color="#fff"/>
    </linearGradient>
    <linearGradient id="e">
      <stop offset="0"/>
      <stop offset=".80000001" stop-color="#434241"/>
      <stop offset="1" stop-color="#7f7d7f"/>
    </linearGradient>
    <linearGradient id="d">
      <stop offset="0" stop-color="#d7d5d7"/>
      <stop offset=".25" stop-color="#3a3f2d"/>
      <stop offset=".47633332" stop-color="#7d7d8d"/>
      <stop offset="1"/>
    </linearGradient>
    <linearGradient id="h">
      <stop offset="0" stop-color="#fff"/>
      <stop offset="1" stop-color="#fff" stop-opacity="0"/>
    </linearGradient>
    <linearGradient id="g">
      <stop offset="0" stop-opacity="0"/>
      <stop offset=".5" stop-color="#fff" stop-opacity=".47916666"/>
      <stop offset="1" stop-opacity="0"/>
    </linearGradient>
    <linearGradient id="j">
      <stop offset="0" stop-color="#fff"/>
      <stop offset="1" stop-color="#fff" stop-opacity="0"/>
    </linearGradient>
    <linearGradient id="k">
      <stop offset="0" stop-color="#6f7275" stop-opacity=".51041669"/>
      <stop offset=".57499999" stop-color="#edede7" stop-opacity=".82291669"/>
      <stop offset=".75" stop-color="#d2cfd5" stop-opacity=".05882353"/>
      <stop offset=".79277778" stop-color="#313332" stop-opacity=".27843137"/>
      <stop offset=".86666667" stop-color="#181919" stop-opacity=".38823529"/>
      <stop offset="1" stop-opacity=".52083331"/>
    </linearGradient>
    <linearGradient id="b">
      <stop offset="0" stop-color="#fff"/>
      <stop offset="1" stop-color="#fff" stop-opacity="0"/>
    </linearGradient>
    <linearGradient xlink:href="#a" id="p" x1="7.9523201" x2="9.9342804" y1="54.242634" y2="3.2188954" gradientUnits="userSpaceOnUse"/>
    <linearGradient xlink:href="#b" id="q" x1="-25.430828" x2="-23.67005" y1="50.236488" y2="18.375" gradientUnits="userSpaceOnUse"/>
    <linearGradient xlink:href="#c" id="r" x1="35.548183" x2="35.119713" y1="17.459517" y2="22.285725" gradientUnits="userSpaceOnUse"/>
    <linearGradient xlink:href="#d" id="s" x1="39.156654" x2="46.454544" y1="17.277166" y2="17.277166" gradientUnits="userSpaceOnUse"/>
    <linearGradient xlink:href="#e" id="t" x1="52.487553" x2="43.592915" y1="64.582741" y2="28.000229" gradientUnits="userSpaceOnUse"/>
    <linearGradient xlink:href="#f" id="u" x1="10.965677" x2="15.270654" y1="20.713133" y2="26.748329" gradientUnits="userSpaceOnUse"/>
    <linearGradient xlink:href="#a" id="v" x1="10.965677" x2="15.270654" y1="20.713133" y2="26.748329" gradientUnits="userSpaceOnUse"/>
    <linearGradient xlink:href="#b" id="w" x1="30.780939" x2="13.128472" y1="10.279476" y2="36.353897" gradientUnits="userSpaceOnUse"/>
    <linearGradient xlink:href="#g" id="x" x1="6.2824841" x2="21.607616" y1="36.881172" y2="35.466957" gradientUnits="userSpaceOnUse"/>
    <linearGradient xlink:href="#h" id="y" x1="30.984135" x2="31.153326" y1="12.173903" y2="15.976002" gradientUnits="userSpaceOnUse"/>
    <linearGradient xlink:href="#g" id="z" x1="47.002754" x2="62.956913" y1="56.347752" y2="38.173374" gradientUnits="userSpaceOnUse"/>
    <linearGradient xlink:href="#g" id="A" x1="47.391911" x2="64.096848" y1="57.541195" y2="38.053669" gradientUnits="userSpaceOnUse"/>
    <linearGradient xlink:href="#g" id="B" x1="47.740093" x2="65.269928" y1="58.809391" y2="38.073269" gradientUnits="userSpaceOnUse"/>
    <linearGradient xlink:href="#g" id="C" x1="48.096867" x2="67.029091" y1="59.747952" y2="38.181068" gradientUnits="userSpaceOnUse"/>
    <linearGradient xlink:href="#g" id="D" x1="48.40955" x2="68.407845" y1="61.036934" y2="38.255646" gradientUnits="userSpaceOnUse"/>
    <linearGradient xlink:href="#d" id="E" x1="-27.424303" x2="-9.5049028" y1="4.6165318" y2="-15.003125" gradientUnits="userSpaceOnUse"/>
    <linearGradient xlink:href="#b" id="F" x1="-13.627874" x2="-15.684913" y1="44.072445" y2="38.929848" gradientUnits="userSpaceOnUse"/>
    <linearGradient xlink:href="#b" id="G" x1="-15.725088" x2="-15.484032" y1="37.38707" y2="40.038723" gradientUnits="userSpaceOnUse"/>
    <linearGradient xlink:href="#i" id="H" x1="19.027601" x2="19.670425" y1="23.573696" y2="26.973318" gradientUnits="userSpaceOnUse"/>
    <linearGradient xlink:href="#j" id="J" x1="-16.327738" x2="-16.327738" y1="37.38707" y2="41.244019" gradientUnits="userSpaceOnUse"/>
    <linearGradient xlink:href="#j" id="K" x1="-16.327738" x2="-16.327738" y1="31.216005" y2="41.244019" gradientUnits="userSpaceOnUse"/>
    <linearGradient xlink:href="#b" id="L" x1="13.108305" x2="37.385071" y1="7.9896541" y2="21.43745" gradientUnits="userSpaceOnUse"/>
    <linearGradient xlink:href="#b" id="M" x1="51.657375" x2="46.318184" y1="27.849676" y2="28.362938" gradientUnits="userSpaceOnUse"/>
    <linearGradient xlink:href="#b" id="N" x1="-15.371528" x2="-15.764716" y1="15.478823" y2="17.385544" gradientUnits="userSpaceOnUse"/>
    <linearGradient xlink:href="#d" id="P" x1="-19.627714" x2="1.7069271" y1="82.527496" y2="51.451405" gradientUnits="userSpaceOnUse"/>
    <linearGradient xlink:href="#c" id="R" x1="29.745043" x2="23.744062" y1="22.501869" y2="14.78027" gradientUnits="userSpaceOnUse"/>
    <linearGradient xlink:href="#b" id="S" x1="13.795218" x2="14.317711" y1="20.02623" y2="22.298956" gradientUnits="userSpaceOnUse"/>
    <linearGradient xlink:href="#b" id="T" x1="-15.725088" x2="-15.484032" y1="37.38707" y2="40.038723" gradientUnits="userSpaceOnUse"/>
    <linearGradient xlink:href="#d" id="U" x1="33.180061" x2="74.5" y1="93.138069" y2="33.767117" gradientUnits="userSpaceOnUse"/>
    <linearGradient xlink:href="#k" id="V" x1="50.298363" x2="45.63102" y1="49.354584" y2="33.097576" gradientUnits="userSpaceOnUse"/>
    <linearGradient xlink:href="#l" id="W" x1="61.752346" x2="79.937454" y1="60.653931" y2="38.028675" gradientUnits="userSpaceOnUse"/>
    <linearGradient xlink:href="#m" id="X" x1="70.563736" x2="58.749119" y1="38.400452" y2="54.725594" gradientUnits="userSpaceOnUse"/>
    <linearGradient xlink:href="#g" id="Y" x1="-17.649715" x2="-25.447517" y1="62.816422" y2="73.34375" gradientUnits="userSpaceOnUse"/>
    <linearGradient xlink:href="#c" id="aa" x1="24.808496" x2="36.136127" y1="56.213223" y2="53.014339" gradientUnits="userSpaceOnUse"/>
    <linearGradient xlink:href="#m" id="ab" x1="98.275635" x2="105.41028" y1="76.882278" y2="71.017059" gradientUnits="userSpaceOnUse"/>
    <linearGradient xlink:href="#m" id="ac" x1="60.620293" x2="67.488075" y1="49.054718" y2="42.62645" gradientUnits="userSpaceOnUse"/>
    <linearGradient xlink:href="#l" id="ad" x1="64.810028" x2="106.71485" y1="74.968681" y2="41.438538" gradientUnits="userSpaceOnUse"/>
    <linearGradient xlink:href="#k" id="ae" x1="75.624222" x2="124.22609" y1="75.043655" y2="75.043655" gradientUnits="userSpaceOnUse"/>
    <linearGradient xlink:href="#c" id="af" x1="75.661041" x2="109.63825" y1="95.915878" y2="49.878452" gradientUnits="userSpaceOnUse"/>
    <linearGradient xlink:href="#d" id="O" x1="33.180061" x2="74.5" y1="93.138069" y2="33.767117" gradientUnits="userSpaceOnUse"/>
    <radialGradient xlink:href="#n" id="o" cx="-38.021435" cy="48.71875" r="35.15964" fx="-38.021435" fy="48.71875" gradientTransform="matrix(-.99287 .00312 -.00432 -.37789 -75.54023 58.90193)" gradientUnits="userSpaceOnUse"/>
    <radialGradient xlink:href="#e" id="I" cx="13.306464" cy="26.270802" r="1.6070609" fx="13.306464" fy="26.270802" gradientTransform="matrix(1.20054 -.04 .0273 .81929 -3.385483 5.499959)" gradientUnits="userSpaceOnUse"/>
    <radialGradient xlink:href="#b" id="Q" cx="-16.327738" cy="39.315544" r="1.928473" fx="-16.327738" fy="39.315544" gradientUnits="userSpaceOnUse"/>
    <radialGradient xlink:href="#b" id="Z" cx="-16.327738" cy="39.315544" r="1.928473" fx="-16.327738" fy="39.315544" gradientUnits="userSpaceOnUse"/>
  </defs>
  <path fill="url(#o)" d="M-3.0909081 46.18182a34.909092 8.727273 0 1 1-69.8181839 0 34.909092 8.727273 0 1 1 69.8181839 0z" transform="matrix(1.83333 0 0 4.07052 134.1132 -95.33161)"/>
  <path fill="url(#p)" fill-rule="evenodd" d="M34 12.4375 27 13l-.8125.8125c-.010535.000216-.085854 0-.09375 0-.454545 0-1.377841.372159-2.46875 1.28125s-1.093751 3.375001-1.09375 3.375c.001566.01409.028361.017709.03125.03125l-.0625.0625S11 21.509311 8 22c-3 .490689-3 5-3 5l2 17.46875C8.6781287 48.184019 18 48.506434 18 46c0-3 2-2.500001 2-2.5 0 0 5.11788-1.197314 8.8125-2.03125.133425.174024.202318.395353.34375.5625.218907.258707.320933.605775.5625.84375.939237 1.852876 2.320952 3.361685 4 4.5.009936.010411.021279.020876.03125.03125.719808.748909 1.645444 1.245722 2.53125 1.78125 2.09478 2.525495 5.124619 4.187501 8.59375 4.1875 6.303146 0 11.406248-5.268823 11.40625-11.78125 0-3.620112-1.669518-6.741518-4.15625-8.90625-.184781-.207423-.30058-.462883-.5-.65625-.587141-.898382-1.412003-1.531123-2.1875-2.21875V21S49 20.987959 49 20.46875 48.406248 19 48.40625 19c0 0-1.871436 0-2-1-.128565-1-.843748-1-.84375-1 0 0-1.249846-.34694-2.515471-.47194C41.781404 16.40306 41.664206 16.5 40.5 16.5c-1.928473-4.049794-6.5-4.0625-6.5-4.0625z" transform="matrix(2.36241 0 0 2.45368 -9.034413 -30.00712)"/>
  <path fill="url(#q)" d="M-18 18.375s-1.645783 1.138425-6.53125 1.78125c-4.885465.642825-1.289443-1.931203-4.375-1.03125-3.085556.899955-5.03125 10.03125-5.03125 10.03125s-.75 2.851856-.75 4.4375c0 3.592874 1.647925 6.721274 4.125 8.90625-.193201-.306301-.427478-.578237-.59375-.90625-.241567-.237975-.343593-.585044-.5625-.84375-.141432-.167147-.210327-.388477-.34375-.5625-.05263.011879-.071814.019227-.125.03125-.581499-1.373316-1.031252-2.819634-1.03125-4.40625 0-6.811628 5.577024-12.312501 12.4375-12.3125 2.732155 0 4.889036 1.217593 6.625 2.53125L-18 18.375z" transform="matrix(2.36241 0 0 2.45368 133.4014 -27.4859)"/>
  <path fill="url(#r)" fill-rule="evenodd" d="M27.373802 22.568295s2.196118-2.923175 3.224637-3.180305c1.028519-.257129 2.571297 0 4.114076-.128565 1.542778-.128564 6.299678-.899954 6.299678-.899954s-1.655332 3.793814-2.683851 3.922379c-1.028519.128564-6.81733-1.725486-10.95454.286445z" transform="matrix(2.06673 0 0 2.45368 2.423817 -27.67453)"/>
  <path fill="url(#s)" fill-rule="evenodd" d="M42.577517 16.333611c-1.488475-.018762-1.466677.078941-2.077517.197639.313736.613338.6779 1.196742.96875 1.8125.003922.008303-.003919.022949 0 .03125 2.029249.168378 5.34375.250001 5.34375.25 0 .09091-.355113-.803977-.71875-1.53125-.647722-.426922-2.082141-.741378-3.516233-.760139z" transform="matrix(2.36241 0 0 2.45368 -8.876525 -29.72141)"/>
  <path fill="url(#t)" d="M47.75 32.5c-6.473455 0-11.718752 5.245297-11.71875 11.71875 0 .919149.286465 1.747058.5 2.59375 1.789071 1.989813 4.303043 3.312501 7.1875 3.3125 5.393554 0 9.750001-4.387698 9.75-9.78125 0-3.131753-1.550081-5.805217-3.84375-7.59375-.614231-.116706-1.220725-.249999-1.875-.25z" transform="matrix(1.74204 0 0 1.80934 16.26462 -3.873807)"/>
  <path fill="url(#u)" stroke="url(#v)" stroke-linecap="round" stroke-linejoin="round" stroke-opacity=".24999996" stroke-width=".46759316" d="M15.170654 26.748329a2.8927095 1.5749197 0 1 1-5.7854189 0 2.8927095 1.5749197 0 1 1 5.7854189 0z" transform="matrix(2.5654 0 0 2.59494 -12.44828 -31.65859)"/>
  <path fill="url(#w)" fill-rule="evenodd" d="M25.455844 19.516555s-2.571297 10.670884-2.571297 11.956533c0 1.285649-.128565 5.913984 2.442732 8.485281 2.571298 2.571298 2.442733 3.085557 2.442733 3.085557l-9.513801.642825-.771389-17.356258-1.028519-.771389.642825-3.085557-6.299679 1.542778s-4.665991-.049468-5.8322117 2.737519c-.2219448.530395-.7181359-.771389-.7181359-.771389s.1635445-1.897279 1.9128755-3.502447c.4736431-.43461 1.0376558 2.050577 2.837564 1.407753 1.7999081-.642825 6.8139381-1.928473 9.1281061-2.442733 2.314167-.514259 7.585327-1.671343 7.328197-1.928473z" transform="matrix(2.36241 0 0 2.45368 -7.222683 -29.37864)"/>
  <path fill="url(#x)" fill-rule="evenodd" d="M16.841998 26.330493s.771389 4.242642-8.3567166 2.571298c-2.1856027.514259-.3856946 3.085557 0 3.856946.3856946.771389 2.8284276 9.77093 2.5712976 11.827968-.25713 2.057038-.385695 2.571297-.385695 2.571297s6.171113 1.157083 7.585327-1.285649c0-7.356338-1.285648-19.54186-1.414213-19.54186z" transform="matrix(2.36241 0 0 2.45368 -9.652483 -29.06318)"/>
  <path fill="url(#y)" fill-rule="evenodd" d="M26.741493 12.831182s4.114076 1.157084 5.142595 3.599816c1.028519 2.442733 8.356716-.385694 8.356716-.385694s-3.085557-3.728381-5.656854-3.856946c-2.571298-.128565-7.842457.642824-7.842457.642824z" transform="matrix(2.36241 0 0 2.45368 -8.133783 -29.6941)"/>
  <g fill="none" stroke-linecap="round" stroke-linejoin="round" stroke-width=".2">
    <path stroke="url(#z)" d="M47.75 32.5c-6.473455 0-11.718752 5.245297-11.71875 11.71875 0 .919149.286465 1.747058.5 2.59375 1.789071 1.989813 4.303043 3.312501 7.1875 3.3125 5.393554 0 9.750001-4.387698 9.75-9.78125 0-3.131753-1.550081-5.805217-3.84375-7.59375-.614231-.116706-1.220725-.249999-1.875-.25z" transform="matrix(2.16759 0 0 2.22843 -2.218814 -19.40935)"/>
    <path stroke="url(#A)" d="M47.75 32.5c-6.473455 0-11.718752 5.245297-11.71875 11.71875 0 .919149.286465 1.747058.5 2.59375 1.789071 1.989813 4.303043 3.312501 7.1875 3.3125 5.393554 0 9.750001-4.387698 9.75-9.78125 0-3.131753-1.550081-5.805217-3.84375-7.59375-.614231-.116706-1.220725-.249999-1.875-.25z" transform="matrix(2.07017 0 0 2.07827 1.55453 -13.42842)"/>
    <path stroke="url(#B)" d="M47.75 32.5c-6.473455 0-11.718752 5.245297-11.71875 11.71875 0 .919149.286465 1.747058.5 2.59375 1.789071 1.989813 4.303043 3.312501 7.1875 3.3125 5.393554 0 9.750001-4.387698 9.75-9.78125 0-3.131753-1.550081-5.805217-3.84375-7.59375-.614231-.116706-1.220725-.249999-1.875-.25z" transform="matrix(1.97275 0 0 1.95313 5.484384 -8.70466)"/>
    <path stroke="url(#C)" d="M47.75 32.5c-6.473455 0-11.718752 5.245297-11.71875 11.71875 0 .919149.286465 1.747058.5 2.59375 1.789071 1.989813 4.303043 3.312501 7.1875 3.3125 5.393554 0 9.750001-4.387698 9.75-9.78125 0-3.131753-1.550081-5.805217-3.84375-7.59375-.614231-.116706-1.220725-.249999-1.875-.25z" transform="matrix(1.82662 0 0 1.8779 11.80895 -6.042658)"/>
    <path stroke="url(#D)" d="M47.75 32.5c-6.473455 0-11.718752 5.245297-11.71875 11.71875 0 .919149.286465 1.747058.5 2.59375 1.789071 1.989813 4.303043 3.312501 7.1875 3.3125 5.393554 0 9.750001-4.387698 9.75-9.78125 0-3.131753-1.550081-5.805217-3.84375-7.59375-.614231-.116706-1.220725-.249999-1.875-.25z" transform="matrix(1.72925 0 0 1.77779 15.95163 -2.353127)"/>
  </g>
  <path fill="url(#E)" fill-rule="evenodd" d="M-18.84375-16.375c-6.860476 0-12.4375 5.500872-12.4375 12.3125 0 1.5866162.449751 3.0329342 1.03125 4.40625.053188-.01202233.07237-.01937063.125-.03125.133425.17402399.202318.395353.34375.5625.218907.258707.320933.605775.5625.84375.939237 1.852876 2.320952 3.361685 4 4.5.009936.0104109.021279.020876.03125.03125.719808.7489089 1.645444 1.245722 2.53125 1.78125 1.095666 1.3209499 2.463653 2.359524 4 3.09375-1.226986-.648706-2.38682-1.4392045-3.3125-2.46875-.244706-.9702887-.5625-1.9154272-.5625-2.96875C-22.531252-1.7309218-16.512174-7.75-9.09375-7.75c.7497834.0000011 1.4211058.1787575 2.125.3125C-4.9973828-5.9002881-3.4978105-3.8155716-2.875-1.34375c-.4501323-2.8542134-1.8728105-5.3276614-3.9375-7.125-.1847809-.2074231-.30058-.462883-.5-.65625-.5871409-.898382-1.412003-1.531123-2.1875-2.21875V-11.5c-1.213804-1.352878-4.813385-4.875-9.34375-4.875z" transform="matrix(2.4201 0 0 2.44372 129.8996 70.37549)"/>
  <path fill="#500" fill-opacity=".22872336" d="M99.56229482 68.16631809a8.5042591 8.83281076 0 1 1-17.00851818 0 8.5042591 8.83281076 0 1 1 17.00851818 0z"/>
  <path fill="url(#F)" d="M-14.527829 40.086933a2.6998622 2.6998622 0 1 1-5.399725 0 2.6998622 2.6998622 0 1 1 5.399725 0z" transform="matrix(2.36241 0 0 2.45368 130.6679 -31.58684)"/>
  <path fill="url(#G)" d="M-14.399265 39.315544a1.928473 1.928473 0 1 1-3.856946 0 1.928473 1.928473 0 1 1 3.856946 0z" transform="matrix(1.25995 0 0 1.30863 112.8191 13.2738)"/>
  <path fill="url(#H)" stroke="#000" stroke-linecap="round" stroke-linejoin="round" stroke-opacity=".56914896" stroke-width=".37099999" d="M21.277486 25.816235a1.6070609 1.6070609 0 1 1-3.214121 0 1.6070609 1.6070609 0 1 1 3.214121 0z" transform="matrix(2.36241 0 0 2.45368 -6.615183 -28.90545)"/>
  <path fill="url(#I)" d="M14.913525 27.005459a1.6070609 1.1249427 0 1 1-3.214122 0 1.6070609 1.1249427 0 1 1 3.214122 0z" transform="matrix(2.36241 0 0 2.45368 -10.71548 -28.59)"/>
  <path fill="url(#J)" d="M-14.399265 39.315544a1.928473 1.928473 0 1 1-3.856946 0 1.928473 1.928473 0 1 1 3.856946 0z" transform="matrix(.70873 0 0 .7361 52.03382 5.972273)"/>
  <path fill="url(#K)" d="M-14.399265 39.315544a1.928473 1.928473 0 1 1-3.856946 0 1.928473 1.928473 0 1 1 3.856946 0z" transform="matrix(1.3584 0 0 .65432 42.82342 10.5679)"/>
  <path fill="url(#L)" fill-rule="evenodd" d="M30.636364 19.090909S31 17.272727 32.090909 17c1.090909-.272727 7.545455-.909091 7.545455-.909091s1.545454 1.636364 1 2.181818c-.545455.545455-8.363637 1.454546-10 .818182z" transform="matrix(1.85292 0 0 2.38436 12.10092 -26.54394)"/>
  <path fill="url(#M)" fill-rule="evenodd" d="M43.090909 23s5.272727-1.454545 5.545455-1.909091c.272727-.454545-.090909-.636364-.090909-.636364l.636363.727273.363637 8.181818-4.909091-3.090909L43.090909 23z" transform="matrix(2.06295 0 0 2.45368 6.136759 -29.33598)"/>
  <path fill="url(#N)" d="M-13.727273 16.227272a2.7272727.31818181 0 1 1-5.454546 0 2.7272727.31818181 0 1 1 5.454546 0z" transform="matrix(2.11974 .19075 -.16529 2.44626 130.6331 -24.84999)"/>
  <path fill="url(#O)" fill-rule="evenodd" d="M70.71875 39.5c-7.187334 0-13.03125 5.294487-13.03125 11.875.000001 1.532783.453297 2.95453 1.0625 4.28125.029502-.006147.0431-.026354.0625-.03125-.432294-1.086679-.781249-2.215971-.78125-3.4375 0-6.727858 6.165118-12.156249 13.75-12.15625.981585 0 1.856318.340094 2.71875.6875C73.365624 40.030801 72.135678 39.5 70.71875 39.5z" transform="matrix(2.43091 0 0 2.5926 -82.85983 -68.47909)"/>
  <path fill="url(#P)" fill-rule="evenodd" d="M-35.28125 46.375c-6.984679 0-12.65625 5.527168-12.65625 12.375.000001 1.59505.439224 3.056885 1.03125 4.4375.054153-.012085.071417-.019308.125-.03125.135839.174952.199758.394465.34375.5625.22287.260084.34781.60451.59375.84375.651446 1.268995 1.570871 2.310474 2.59375 3.25-.0631-.110934-.136505-.215793-.21875-.3125-.147316-.173225-.204773-.413401-.34375-.59375-.05482.012311-.069599.018787-.125.03125-.605692-1.423254-1.09375-2.918189-1.09375-4.5625 0-7.059319 5.822852-12.749999 12.96875-12.75 3.746012 0 6.484088 2.13139 8.25 3.78125-.575519-.751622-1.268175-1.355359-1.96875-1.96875v-.15625c-1.235779-1.360067-4.887617-4.90625-9.5-4.90625z" transform="matrix(2.36241 0 0 2.41727 171.6143 -76.85911)"/>
  <path fill="url(#Q)" d="M-14.399265 39.315544a1.928473 1.928473 0 1 1-3.856946 0 1.928473 1.928473 0 1 1 3.856946 0z" transform="matrix(2.29614 -.20972 .09365 1.10602 54.91287 -5.016146)"/>
  <path fill="url(#R)" d="M24.128945 16.71334c.027451-.20638.700031.344637.939578.530147.327447.224342.663375.41624.972537.657817.265952.227359.416189.230053.733818.128355.496354-.116624 1.009409-.133397 1.522526-.12044 1.169941-.011905 1.009645-.161889.141717.32256.14497-.196089.29583-.386937.44958-.576182l1.385451-.0871c-.145826.169906-.308768.339897-.442473.528576-.901983.624162-1.360008 1.013935-2.413784.901648-.486811.021027-.96693.062183-1.448954.113337-.406461.002892-.689563-.150849-.993452-.421319-.341815-.183067-.695194-.352986-1.024423-.563475-.380504-.28054-.812798-.552062-.989102-1.000674l1.166981-.41325z" transform="matrix(2.50041 .43658 -.27812 .88615 -6.949183 -12.38263)"/>
  <path fill="url(#S)" fill-rule="evenodd" d="M7.9090909 21.727273 18.48025 19.129182s1.610659.598091 1.065205.961727c-.545455.363636-9.363637 3.090909-9.363637 3.090909S7.9090909 24 7.9090909 21.727273z" transform="matrix(2.36241 0 0 2.45368 -7.648262 -30.07331)"/>
  <path fill="none" stroke="#fff" stroke-linecap="round" stroke-linejoin="round" stroke-opacity=".20212765" stroke-width=".2" d="M10.799449 46.772308s0-9.899495-1.6713433-13.242182c-1.6713433-3.342687-1.2856487-4.628335-1.0285189-5.142595" transform="matrix(2.36241 0 0 2.45368 -9.280283 -27.98999)"/>
  <path fill="#ffa700" d="M65.37590247 41.38217678a1.2508133.62179323-50.28675617 1 1-1.62168646 1.90403644 1.2508133.62179323-50.28675617 1 1 1.62168646-1.90403644z"/>
  <path fill="url(#T)" d="M-14.399265 39.315544a1.928473 1.928473 0 1 1-3.856946 0 1.928473 1.928473 0 1 1 3.856946 0z" transform="matrix(.41598 0 0 .43205 96.22175 49.28367)"/>
  <path fill="url(#U)" fill-rule="evenodd" d="M70.71875 39.5c-7.187334 0-13.03125 5.294487-13.03125 11.875.000001 1.532783.453297 2.95453 1.0625 4.28125.029502-.006147.0431-.026354.0625-.03125-.432294-1.086679-.781249-2.215971-.78125-3.4375 0-6.727858 6.165118-12.156249 13.75-12.15625.981585 0 1.856318.340094 2.71875.6875C73.365624 40.030801 72.135678 39.5 70.71875 39.5z" transform="matrix(2.55403 0 0 2.52272 -81.90589 -56.24217)"/>
  <path fill="url(#V)" d="M47.75 32.5c-6.473455 0-11.432285 6.465808-11.750347 13.857955 1.789071 1.989813 4.83464 3.767046 7.719097 3.767045 5.393554 0 9.750001-4.387698 9.75-9.78125 0-3.131753-1.550081-5.805217-3.84375-7.59375-.614231-.116706-1.220725-.249999-1.875-.25z" opacity=".40957448" transform="matrix(2.35023 0 0 2.45368 -8.240661 -28.63197)"/>
  <path fill="url(#W)" fill-rule="evenodd" d="M70.71875 39.5c-7.187334 0-13.03125 5.294487-13.03125 11.875.000001 1.532783.453297 2.95453 1.0625 4.28125.029502-.006147.0431-.026354.0625-.03125-.432294-1.086679-.781249-2.215971-.78125-3.4375 0-6.727858 6.165118-12.156249 13.75-12.15625.981585 0 1.856318.340094 2.71875.6875C73.365624 40.030801 72.135678 39.5 70.71875 39.5z" transform="matrix(2.59235 0 0 2.56099 -79.34397 -54.24613)"/>
  <path fill="url(#X)" fill-rule="evenodd" d="M70.71875 39.5c-7.187334 0-13.03125 5.294487-13.03125 11.875.000001 1.532783.453297 2.95453 1.0625 4.28125.029502-.006147.0431-.026354.0625-.03125-.432294-1.086679-.781249-2.215971-.78125-3.4375 0-6.727858 6.165118-12.156249 13.75-12.15625.981585 0 1.856318.340094 2.71875.6875C73.365624 40.030801 72.135678 39.5 70.71875 39.5z" opacity=".34574464" transform="matrix(2.42629 0 0 2.4951 -86.47382 -68.77167)"/>
  <path fill="url(#Y)" d="M-25.28125 55.71875c-.110727 0-.202512.059451-.3125.0625.420794.039208.841841.109949 1.25.1875 2.057056 1.60403 3.4375 4.003816 3.4375 6.8125.000001 4.837159-3.91284 8.749998-8.75 8.75-2.586899.000001-4.832988-1.184205-6.4375-2.96875-.191507-.759348-.437499-1.488172-.4375-2.3125 0-1.351247.285762-2.626011.75-3.8125-.72941 1.527696-1.218751 3.193834-1.21875 5 .000002.919151.286465 1.747058.5 2.59375 1.789073 1.989815 4.303043 3.312501 7.1875 3.3125 5.393554.000002 9.750001-4.387698 9.75-9.78125 0-3.131751-1.550081-5.805217-3.84375-7.59375-.614231-.116704-1.220725-.249999-1.875-.25z" transform="matrix(2.816 0 0 2.85126 179.1622 -107.1502)"/>
  <path fill="url(#Z)" d="M-14.399265 39.315544a1.928473 1.928473 0 1 1-3.856946 0 1.928473 1.928473 0 1 1 3.856946 0z" transform="matrix(1.1717 -.58223 .30492 .67115 78.81982 -21.41145)"/>
  <path fill="url(#aa)" fill-rule="evenodd" d="M33.306052 78.887685s-.376339-40.080164-3.010716-43.090881c-2.634377-3.010717-7.526792-3.951566-9.40849-4.139735-1.881697-.18817 9.03215-2.258038 9.03215-2.258038s6.774113 10.161169 3.387056 49.488654z" transform="translate(.00001711 .00000292)"/>
  <path fill="url(#ab)" fill-rule="evenodd" d="M91.09375 66.53125 89.75 68.25l2.40625 3c.971359-.873474 1.702062-1.528036 2.25-2-.752824-.599627-3.3125-2.71875-3.3125-2.71875zm5.65625 4.625c-.979925.729333-1.9682 1.426912-2.96875 2.125l2.40625 3.03125c1.506233-.948511 2.730888-1.847112 3.46875-2.78125-1.292493-1.058161-1.90262-1.567154-2.90625-2.375zm5.5625 4.5625c-1.28029 1.137274-2.614652 2.212689-4 3.21875l2.375 3c1.1302-.689973 3.62235-2.299324 5.03125-3.28125-1.43377-1.241553-1.9652-1.732231-3.40625-2.9375zm9.15625 8.09375c-1.72604 1.684814-3.49573 3.330429-5.53125 4.6875l1.34375 1.6875c1.98504-1.565456 3.92596-3.179905 5.71875-4.9375-.44687-.452927-1.00921-.938724-1.53125-1.4375zm3.09375 3.125c-1.12832 1.55507-2.38416 3.007137-3.84375 4.375-.45946.481617-.99641.8621-1.5 1.28125l2.03125 2.5625s3.68001-3.428491 4.6875-5.84375c.15549-.372769-.4444-1.28826-1.375-2.375z"/>
  <path fill="url(#ac)" fill-rule="evenodd" d="M70.71875 39.5c-7.187334 0-13.03125 5.294487-13.03125 11.875.000001 1.532783.453297 2.95453 1.0625 4.28125.029502-.006147.0431-.026354.0625-.03125-.432294-1.086679-.781249-2.215971-.78125-3.4375 0-6.727858 6.165118-12.156249 13.75-12.15625.981585 0 1.856318.340094 2.71875.6875C73.365624 40.030801 72.135678 39.5 70.71875 39.5z" transform="matrix(2.4499 0 0 2.4951 -76.63377 -56.70811)"/>
  <path fill="none" stroke="url(#ad)" stroke-dasharray="1.5 1.5" stroke-linecap="round" stroke-linejoin="round" stroke-opacity=".27659574" stroke-width="1.5" d="m83.125 35.78125 4.653326 5.215826L83.125 35.78125zm4.15625 0 4.622076 5.215826-4.622076-5.215826zm3.65625.46875 4.809576 5.028326L90.9375 36.25zm-11.75.28125 4.622076 5.215826L79.1875 36.53125zM94.71875 37l4.809576 4.762214L94.71875 37zm-19 .59375 4.028326 5.449714-4.028326-5.449714zm23.125.90625 4.80958 4.762214L98.84375 38.5zm-26.5625.8125 4.122076 5.387214L72.28125 39.3125zm30.15625.875 4.80958 4.762214-4.80958-4.762214zm-33.34375 1.59375 4.090826 5.355964-4.090826-5.355964zm-3.586669 2.945556 4.489995 5.254158-4.489995-5.254158zM63.25 47.78125l4.122076 5.387214L63.25 47.78125zM61 51.1875l4.122076 5.387214L61 51.1875zm-1.5 3.375 3.558602 5.387214L59.5 54.5625zm-.9375 3.03125 3.558602 5.355964L58.5625 57.59375zm-.375 2.8125 3.558602 5.387214L58.1875 60.40625zM58 63.78125l3.558602 5.387214L58 63.78125zm-.375 2.65625 3.558602 5.355964L57.625 66.4375zm.1875 3 3.558602 5.387214L57.8125 69.4375zm.75 3.40625 3.558602 5.387214L58.5625 72.84375z" transform="translate(1.628958 .486567)"/>
  <path fill="none" stroke="url(#ae)" stroke-linecap="round" stroke-linejoin="round" stroke-width=".61356586" d="M123.47609 75.043655c0 11.163943-10.55082 20.224533-23.550934 20.224533-13.000117 0-24.668812-9.871904-25.465089-21.078776-.545071-7.671356 12.464972-19.37029 25.465089-19.37029 13.000114 0 23.550934 9.060591 23.550934 20.224533z" transform="matrix(.88082 -.57502 .51843 .97697 -26.99597 61.05056)"/>
  <path fill="url(#af)" fill-rule="evenodd" d="M75.043659 85.954262s-3.193347-10.910603-1.596674-14.902287c1.596674-3.991684 6.120583-10.910603 7.185032-11.975052 1.064449-1.064449 2.661122 0 2.661122 0s8.515593-6.386694 10.644491-7.185031c2.128898-.798337 1.596674-2.395011 1.596674-2.395011s3.459459-1.330561 5.322246-1.064449c1.86278.266113 8.7817 1.862786 8.7817 1.862786s-5.58835-1.596673-11.176712.798337c-5.588357 2.39501-13.305613 6.652807-16.49896 10.378378-3.193347 3.725572-7.983368 12.507277-6.918919 24.482329z"/>
</svg>