<?xml version="1.0" encoding="UTF-8"?>
<svg version="1.1" xmlns="http://www.w3.org/2000/svg" width="1000" height="1000">
<path d="M0 0 C13.32394407 4.71031892 22.86599535 13.12646776 29.0546875 25.78515625 C39.08406848 52.18031007 27.66677106 80.17992585 17.62988281 104.60693359 C15.95299424 108.69214777 14.31396743 112.7921181 12.6796875 116.89453125 C12.26370049 117.93854347 12.26370049 117.93854347 11.83930969 119.00364685 C11.2885839 120.38596587 10.73790881 121.76830509 10.18728638 123.15066528 C8.15386153 128.24954475 6.10724048 133.34315052 4.0625 138.4375 C-0.13032308 137.86195381 -3.69478297 136.8836011 -7.59375 135.25 C-8.68292725 134.80293701 -9.77210449 134.35587402 -10.89428711 133.89526367 C-12.06354736 133.41420166 -13.23280762 132.93313965 -14.4375 132.4375 C-47.71545361 119.03159545 -83.68904587 109.01080344 -119.79199219 109.12182617 C-121.93736103 109.12499979 -124.08136074 109.10133768 -126.2265625 109.07617188 C-147.53332947 108.97839611 -168.63512034 114.05537689 -184.5703125 128.8984375 C-196.71679221 141.92683983 -197.68221424 155.71120564 -197.11230469 172.67871094 C-196.09072847 188.80135232 -188.6776094 203.59986117 -177.9375 215.4375 C-177.21046875 216.25734375 -176.4834375 217.0771875 -175.734375 217.921875 C-146.11394582 249.50392201 -92.96740451 260.0493709 -51.47949219 261.5637207 C-20.94313388 262.21312341 15.49439449 262.2305746 40.25 241.4375 C49.46966601 232.41100794 52.34181069 222.46764461 52.5 209.8125 C52.37682448 193.78484178 48.1004124 175.7786755 37 163.5625 C31.2732668 158.52136162 24.47520523 154.53932046 18.0625 150.4375 C18.63835926 146.78139773 19.6119944 144.09105976 21.4765625 140.90234375 C21.98276123 140.02465332 22.48895996 139.14696289 23.01049805 138.24267578 C23.56390869 137.29634277 24.11731934 136.35000977 24.6875 135.375 C29.54050302 126.94806948 34.23564757 118.4586652 38.790802 109.86871338 C41.52807568 104.71430276 44.29477758 99.57560649 47.0625 94.4375 C47.53816406 93.55175293 48.01382812 92.66600586 48.50390625 91.75341797 C58.94755967 72.49111242 73.05917492 57.33136714 94.0625 49.4375 C104.28973388 46.76167476 115.71039448 47.48983978 125.0625 52.4375 C141.55564181 62.58091674 148.30818225 80.2727801 153.3125 98.05078125 C154.0625 101.4375 154.0625 101.4375 153.0625 103.4375 C150.50907549 104.18622567 148.00865795 104.81391719 145.4140625 105.3828125 C144.6457309 105.55755096 143.87739929 105.73228943 143.08578491 105.912323 C141.45749289 106.28094652 139.82827676 106.64550765 138.19824219 107.00634766 C135.70297094 107.55907304 133.21074296 108.12410326 130.71875 108.69140625 C129.13818489 109.04760376 127.55746061 109.40309586 125.9765625 109.7578125 C125.22960114 109.92652863 124.48263977 110.09524475 123.71304321 110.26907349 C120.76513231 110.91892781 118.09143469 111.4375 115.0625 111.4375 C114.48242188 109.57544922 114.48242188 109.57544922 113.890625 107.67578125 C113.36515025 106.03367265 112.83907694 104.3917555 112.3125 102.75 C112.05984375 101.93337891 111.8071875 101.11675781 111.546875 100.27539062 C110.02978625 95.59137912 108.49677432 92.10321455 105.0625 88.4375 C103.34312374 89.58783002 101.6375514 90.7587977 99.9375 91.9375 C98.98617188 92.5871875 98.03484375 93.236875 97.0546875 93.90625 C89.14091279 100.60093148 84.74335116 110.08783934 79.875 119.0625 C79.15744372 120.37269319 78.43934818 121.68259119 77.72070312 122.9921875 C74.74408165 128.43118313 71.80804786 133.87706962 69.0625 139.4375 C69.91521484 140.47583984 69.91521484 140.47583984 70.78515625 141.53515625 C87.6685174 162.92826328 95.62697161 192.73134698 92.59375 219.7890625 C89.58935978 243.53095581 78.83269484 262.38064855 59.96484375 277.33203125 C53.16254915 282.26667027 45.90467458 286.40756891 38.0625 289.4375 C39.64562677 297.29907328 41.97198726 304.85823958 44.39453125 312.49609375 C44.82790838 313.87234575 45.26092397 315.24871164 45.69360352 316.62518311 C46.60985101 319.53776532 47.52831524 322.44963463 48.44863892 325.3609314 C49.8812063 329.89284628 51.30878605 334.42632102 52.73510742 338.96020508 C52.97141782 339.71134929 53.20772821 340.4624935 53.45119953 341.23639965 C53.92768202 342.75101132 54.40414569 344.26562891 54.88059044 345.78025246 C55.59313145 348.04490908 56.30614187 350.30941748 57.01924133 352.57389832 C61.00872189 365.24600112 64.95566127 377.93102233 68.875 390.625 C69.14889557 391.51162323 69.42279114 392.39824646 69.70498657 393.31173706 C71.1592601 398.01978051 72.61190664 402.72832139 74.0625 407.4375 C74.98639526 407.23386841 74.98639526 407.23386841 75.92895508 407.02612305 C116.2132898 398.26640252 158.20062503 395.93386307 199.0625 402.4375 C200.14402344 402.60910645 201.22554687 402.78071289 202.33984375 402.95751953 C241.59355315 409.42467218 290.20473511 422.28600805 318.0625 452.8125 C321.18550216 455.73435964 322.55798911 456.40035809 326.8828125 456.71875 C331.38123732 456.43104192 335.69644888 455.52420435 340.0625 454.4375 C340.77341797 454.2631543 341.48433594 454.08880859 342.21679688 453.90917969 C360.60999835 449.18752066 377.15064359 439.33543355 387.09765625 422.70703125 C392.73527705 412.78398652 396.46661495 402.5253501 399.0625 391.4375 C399.30806641 390.43783203 399.30806641 390.43783203 399.55859375 389.41796875 C402.31108058 377.70283886 402.32259414 365.90418419 402.3125 353.9375 C402.31190582 353.15555267 402.31131165 352.37360535 402.31069946 351.56796265 C402.28992507 344.40023464 402.19979618 337.22697924 401.78125 330.0703125 C401.73419922 329.24934082 401.68714844 328.42836914 401.63867188 327.58251953 C400.67054584 323.97830118 398.02455407 322.34335035 395.1328125 320.1875 C389.19897747 315.17173001 385.99800907 306.30068077 385.3125 298.75 C384.57046258 287.75435452 387.33176218 278.7572773 394.3125 270.25 C401.72372876 262.17223674 410.19643625 259.18522057 420.98046875 258.48046875 C430.81302885 258.34338616 439.80737181 261.72734807 447.171875 268.328125 C455.77501321 277.66657417 457.55813069 286.80538806 457.3359375 299.1640625 C456.92210334 308.54293761 452.36014646 315.68410281 446.0625 322.4375 C445.36930664 322.87151123 444.67611328 323.30552246 443.96191406 323.75268555 C441.84628932 325.27130921 441.84628932 325.27130921 441.70019531 327.68310547 C441.79445801 328.98078857 441.79445801 328.98078857 441.890625 330.3046875 C441.94863281 331.2740625 442.00664063 332.2434375 442.06640625 333.2421875 C442.14761719 334.25539063 442.22882812 335.26859375 442.3125 336.3125 C442.44582551 338.28885468 442.57601026 340.26542364 442.703125 342.2421875 C442.80125488 343.75872925 442.80125488 343.75872925 442.90136719 345.3059082 C444.97350382 385.57756975 437.2340851 428.04795137 410.07299805 459.15185547 C394.35337972 476.57500953 372.61247983 490.15408935 349.0625 493.4375 C349.33964844 494.23414063 349.61679687 495.03078125 349.90234375 495.8515625 C350.26457031 496.91117188 350.62679687 497.97078125 351 499.0625 C351.35964844 500.10664062 351.71929688 501.15078125 352.08984375 502.2265625 C357.79738648 521.06833005 354.08966515 541.68336985 345.26757812 558.84521484 C342.15259149 564.5907934 338.42191728 569.56820935 334.0625 574.4375 C333.39089844 575.22769531 332.71929688 576.01789062 332.02734375 576.83203125 C328.81347414 580.56606473 326.11099635 583.41879947 321.875 585.9375 C320.03868914 587.2897506 320.03868914 587.2897506 319.0625 589.4375 C319.10253728 595.32297997 320.53617612 600.78006152 322.0625 606.4375 C322.27664551 607.25718262 322.49079102 608.07686523 322.71142578 608.92138672 C328.42874453 630.43975172 337.0932743 650.68622362 352.0625 667.4375 C352.60132813 668.07042969 353.14015625 668.70335937 353.6953125 669.35546875 C360.28590453 676.59187256 369.50767792 681.63590927 378.125 686.125 C383.04578126 688.77324168 386.25872151 692.02616454 388.0625 697.4375 C388.74504822 706.03760759 386.99418593 714.85446964 381.875 722 C377.6048315 725.7008127 373.53737213 727.36369741 367.85546875 727.484375 C353.79584511 725.66404894 340.6319974 715.2403814 330.0625 706.4375 C329.36640625 705.88191406 328.6703125 705.32632813 327.953125 704.75390625 C323.46182486 701.087336 319.72979681 696.91647216 316.0625 692.4375 C315.28777344 691.50035156 314.51304687 690.56320312 313.71484375 689.59765625 C307.1060733 681.42096567 301.89447972 672.75837339 297.0625 663.4375 C296.71977051 662.78861816 296.37704102 662.13973633 296.02392578 661.47119141 C291.29748426 652.42782772 287.7714556 643.14090503 284.625 633.4375 C284.11151001 631.86174194 284.11151001 631.86174194 283.58764648 630.25415039 C281.71813897 624.2742971 280.5247801 618.68804781 280.0625 612.4375 C279.53406494 612.63907715 279.00562988 612.8406543 278.46118164 613.04833984 C276.01815445 613.97609867 273.57164449 614.89432515 271.125 615.8125 C269.87879883 616.28816406 269.87879883 616.28816406 268.60742188 616.7734375 C263.13856432 618.81627923 257.78855004 620.2934456 252.0625 621.4375 C251.17524512 646.65032604 255.22646251 666.3754467 272.87890625 685.39453125 C275.70945151 688.30106431 278.6408509 690.91081938 281.8125 693.4375 C286.1413027 697.10482274 287.64625468 701.07877653 288.625 706.625 C287.47284225 714.43406919 283.19858885 721.53099782 278.0625 727.4375 C273.45946702 730.77469891 268.74458695 731.20650913 263.1953125 731.015625 C257.28071471 729.92415309 253.37898952 726.41192809 249.0625 722.4375 C248.47533203 721.90640625 247.88816406 721.3753125 247.28320312 720.828125 C226.17085952 701.4805903 211.38323472 675.36259946 209.0625 646.4375 C208.87860071 641.10071806 208.96068675 635.77581654 209.0625 630.4375 C207.34123901 630.64971191 207.34123901 630.64971191 205.58520508 630.86621094 C193.93470926 632.23683017 182.47437935 632.76084636 170.75 632.6875 C169.90852417 632.6853952 169.06704834 632.68329041 168.20007324 632.68112183 C135.50636795 632.58545598 135.50636795 632.58545598 126.0625 629.4375 C126.37703125 630.62859375 126.6915625 631.8196875 127.015625 633.046875 C132.40634993 654.09798364 135.42162587 674.97291386 135.5 696.6875 C135.5061734 697.40858948 135.5123468 698.12967896 135.51870728 698.87261963 C135.5958782 712.82759609 135.21645298 729.81067434 125.9375 741 C121.39553321 743.27098339 118.03015256 743.60120702 113.0625 742.4375 C106.47475894 739.59183056 98.83854527 735.91796651 94.0625 730.4375 C92.24405465 724.98216394 92.90168219 719.89478859 94.05078125 714.375 C98.99434638 687.82679675 92.36354194 659.97756404 85.55078125 634.39453125 C84.32880048 629.73018592 83.50197443 625.23656078 83.0625 620.4375 C82.11503906 620.34339844 81.16757812 620.24929688 80.19140625 620.15234375 C75.23813477 619.44330942 70.683572 617.70722632 66 616 C64.25922399 615.37599678 62.51834119 614.7522914 60.77734375 614.12890625 C59.9663623 613.8364502 59.15538086 613.54399414 58.31982422 613.24267578 C55.58091606 612.26572152 52.82654501 611.34069369 50.0625 610.4375 C49.49595703 611.23800781 49.49595703 611.23800781 48.91796875 612.0546875 C31.58114533 635.52233138 8.39947014 641.56524097 -18.9375 646.4375 C-18.02629638 648.62742604 -17.10988026 650.81477832 -16.1875 653 C-15.91599121 653.64533691 -15.64448242 654.29067383 -15.36474609 654.95556641 C-13.96280602 658.2344978 -12.50815612 661.32402819 -10.5625 664.3125 C-8.38413085 668.50167145 -8.40820312 670.74944195 -8.9375 675.4375 C-11.01173738 679.64020319 -13.79293414 682.43536158 -17.25 685.5625 C-18.17425781 686.41070313 -19.09851563 687.25890625 -20.05078125 688.1328125 C-24.01758324 691.29981274 -27.37971342 693.24277668 -32.4375 693.875 C-36.58688318 693.3563271 -39.06249148 692.40029504 -41.9375 689.4375 C-44.54762325 685.92051878 -46.76704913 682.2383365 -48.9375 678.4375 C-49.63746094 677.24253906 -49.63746094 677.24253906 -50.3515625 676.0234375 C-57.25612753 663.35800839 -60.45891727 648.27397238 -56.8125 634.125 C-53.16063064 623.76388229 -46.01895587 616.06703987 -36.5 610.75 C-28.39053339 606.93892555 -19.31341317 605.56927119 -10.59765625 603.734375 C-1.09042303 601.58556539 8.19647567 598.6001282 14.0625 590.4375 C12.52142578 589.22126953 12.52142578 589.22126953 10.94921875 587.98046875 C-11.35587664 570.22980279 -31.2355794 548.92432586 -34.9375 519.4375 C-37.20196339 495.19561069 -28.97587725 474.45943384 -13.76953125 455.7734375 C-0.83681254 440.79426901 16.36699409 430.00415944 34.0625 421.4375 C34.7225 421.4375 35.3825 421.4375 36.0625 421.4375 C35.8201915 420.66934464 35.577883 419.90118927 35.32823181 419.10975647 C14.74068394 353.83261197 14.74068394 353.83261197 6.15628052 325.90109253 C5.51176835 323.80472762 4.86583893 321.7087979 4.21847534 319.61331177 C3.33138588 316.73962012 2.4498757 313.86428398 1.5703125 310.98828125 C1.31203171 310.15411682 1.05375092 309.31995239 0.78764343 308.46051025 C-0.15548747 305.35615895 -0.9375 302.70145885 -0.9375 299.4375 C-2.06297241 299.64753662 -2.06297241 299.64753662 -3.21118164 299.86181641 C-14.59439886 301.75302738 -25.86109258 301.83518953 -37.375 301.8125 C-38.93027405 301.81168427 -38.93027405 301.81168427 -40.51696777 301.81085205 C-98.35285557 301.67180743 -162.10178377 287.83122182 -204.9375 246.4375 C-225.97575331 225.0712561 -237.09580474 196.92862547 -237.17773438 167.13696289 C-237.18733159 165.03685197 -237.21835225 162.93776803 -237.25 160.83789062 C-237.35012001 148.35182347 -236.01681402 136.06153333 -230.3125 124.75 C-229.79200073 123.68821533 -229.79200073 123.68821533 -229.26098633 122.60498047 C-217.93863848 100.27388119 -197.52935467 83.94611128 -174.02490234 75.89550781 C-125.69004749 60.37721667 -71.72163677 70.40242252 -24.53588867 85.703125 C-21.90637633 86.57348669 -21.90637633 86.57348669 -18.9375 86.4375 C-8.55748619 64.16794436 -8.55748619 64.16794436 -8.9375 40.4375 C-12.91406805 38.26846288 -16.7825667 38.06301028 -21.25 37.8125 C-22.50425781 37.73773438 -23.75851562 37.66296875 -25.05078125 37.5859375 C-26.00339844 37.53695312 -26.95601562 37.48796875 -27.9375 37.4375 C-30.20218651 28.70400148 -32.3163207 19.95197421 -34.1875 11.125 C-34.36249023 10.30733154 -34.53748047 9.48966309 -34.71777344 8.6472168 C-35.36964048 5.52723948 -35.9375 2.63403319 -35.9375 -0.5625 C-27.09949133 -4.98150433 -9.40410606 -2.46423384 0 0 Z M22.0625 476.4375 C21.33546875 477.08332031 20.6084375 477.72914063 19.859375 478.39453125 C10.96695445 486.72693295 4.46520423 496.97395066 3.9375 509.375 C4.4329404 521.26556964 9.40929778 530.60046911 17.0625 539.4375 C17.81080078 540.40042969 17.81080078 540.40042969 18.57421875 541.3828125 C45.79808161 575.25834967 98.67992169 587.61132956 139.515625 592.1015625 C140.68609375 592.21242188 141.8565625 592.32328125 143.0625 592.4375 C144.19171875 592.54835938 145.3209375 592.65921875 146.484375 592.7734375 C194.88332336 596.75290659 254.60436569 590.9141346 293.43359375 558.7109375 C303.93404383 549.60519143 313.80600993 538.85742109 315.265625 524.4296875 C315.58072065 510.19786716 308.50859236 498.35824557 299.0012207 488.28295898 C288.71899636 477.79811388 277.06701198 470.1296256 264.0625 463.4375 C263.41506836 463.0962207 262.76763672 462.75494141 262.10058594 462.40332031 C195.81414593 427.75132941 80.71266777 423.05818064 22.0625 476.4375 Z " fill="#E8380D" transform="translate(387.9375,129.5625)"/>
</svg>
